<svg width="100%" viewBox="0 0 680 480" xmlns="http://www.w3.org/2000/svg">
  <defs>
    <marker id="arr" viewBox="0 0 10 10" refX="8" refY="5" markerWidth="6" markerHeight="6" orient="auto-start-reverse">
      <path d="M2 1L8 5L2 9" fill="none" stroke="context-stroke" stroke-width="1.5" stroke-linecap="round" stroke-linejoin="round"/>
    </marker>
  </defs>

  <ellipse cx="546" cy="40" rx="60" ry="28" fill="#F1EFE8" stroke="#888780" stroke-width="0.5"/>
  <text x="546" y="40" font-family="sans-serif" font-size="13" font-weight="500" fill="#2C2C2A" text-anchor="middle" dominant-baseline="central">User</text>

  <line x1="546" y1="112" x2="546" y2="70" stroke="#888780" stroke-width="1" marker-end="url(#arr)"/>
  <text x="556" y="96" font-family="sans-serif" font-size="11" fill="#5F5E5A">answer</text>

  <rect x="392" y="112" width="308" height="48" rx="8" fill="#F1EFE8" stroke="#888780" stroke-width="0.5"/>
  <text x="546" y="132" font-family="sans-serif" font-size="13" font-weight="500" fill="#2C2C2A" text-anchor="middle" dominant-baseline="central">LLM</text>
  <text x="546" y="148" font-family="sans-serif" font-size="11" fill="#5F5E5A" text-anchor="middle" dominant-baseline="central">Ollama / llama3.2</text>

  <line x1="546" y1="204" x2="546" y2="162" stroke="#888780" stroke-width="1" marker-end="url(#arr)"/>

  <rect x="392" y="204" width="308" height="48" rx="8" fill="#EEEDFE" stroke="#534AB7" stroke-width="0.5"/>
  <text x="546" y="224" font-family="sans-serif" font-size="13" font-weight="500" fill="#3C3489" text-anchor="middle" dominant-baseline="central">Prompt builder</text>
  <text x="546" y="240" font-family="sans-serif" font-size="11" fill="#534AB7" text-anchor="middle" dominant-baseline="central">query + retrieved context</text>

  <line x1="546" y1="296" x2="546" y2="254" stroke="#888780" stroke-width="1" marker-end="url(#arr)"/>
  <text x="556" y="280" font-family="sans-serif" font-size="11" fill="#5F5E5A">top-k chunks</text>

  <rect x="472" y="296" width="148" height="72" rx="8" fill="#E1F5EE" stroke="#0F6E56" stroke-width="0.5"/>
  <text x="546" y="326" font-family="sans-serif" font-size="13" font-weight="500" fill="#085041" text-anchor="middle" dominant-baseline="central">Vector DB</text>
  <text x="546" y="344" font-family="sans-serif" font-size="11" fill="#0F6E56" text-anchor="middle" dominant-baseline="central">stores + indexes</text>
  <text x="546" y="360" font-family="sans-serif" font-size="11" fill="#0F6E56" text-anchor="middle" dominant-baseline="central">ChromaDB</text>

  <line x1="434" y1="332" x2="472" y2="332" stroke="#888780" stroke-width="1" marker-end="url(#arr)"/>

  <rect x="318" y="308" width="110" height="48" rx="8" fill="#EEEDFE" stroke="#534AB7" stroke-width="0.5"/>
  <text x="373" y="328" font-family="sans-serif" font-size="13" font-weight="500" fill="#3C3489" text-anchor="middle" dominant-baseline="central">Embedder</text>
  <text x="373" y="344" font-family="sans-serif" font-size="11" fill="#534AB7" text-anchor="middle" dominant-baseline="central">text to vectors</text>

  <line x1="280" y1="332" x2="318" y2="332" stroke="#888780" stroke-width="1" marker-end="url(#arr)"/>

  <rect x="164" y="308" width="110" height="48" rx="8" fill="#EEEDFE" stroke="#534AB7" stroke-width="0.5"/>
  <text x="219" y="328" font-family="sans-serif" font-size="13" font-weight="500" fill="#3C3489" text-anchor="middle" dominant-baseline="central">Chunker</text>
  <text x="219" y="344" font-family="sans-serif" font-size="11" fill="#534AB7" text-anchor="middle" dominant-baseline="central">splits text</text>

  <line x1="120" y1="278" x2="174" y2="316" stroke="#888780" stroke-width="1" marker-end="url(#arr)"/>
  <line x1="120" y1="332" x2="164" y2="332" stroke="#888780" stroke-width="1" marker-end="url(#arr)"/>
  <line x1="120" y1="382" x2="174" y2="348" stroke="#888780" stroke-width="1" marker-end="url(#arr)"/>

  <text x="40" y="252" font-family="sans-serif" font-size="11" fill="#5F5E5A">Your documents</text>
  <rect x="40" y="260" width="80" height="36" rx="8" fill="#F1EFE8" stroke="#888780" stroke-width="0.5"/>
  <text x="80" y="278" font-family="sans-serif" font-size="13" font-weight="500" fill="#2C2C2A" text-anchor="middle" dominant-baseline="central">TXT</text>
  <rect x="40" y="314" width="80" height="36" rx="8" fill="#F1EFE8" stroke="#888780" stroke-width="0.5"/>
  <text x="80" y="332" font-family="sans-serif" font-size="13" font-weight="500" fill="#2C2C2A" text-anchor="middle" dominant-baseline="central">PDF</text>
  <rect x="40" y="368" width="80" height="36" rx="8" fill="#F1EFE8" stroke="#888780" stroke-width="0.5"/>
  <text x="80" y="386" font-family="sans-serif" font-size="13" font-weight="500" fill="#2C2C2A" text-anchor="middle" dominant-baseline="central">DOCX</text>

  <path d="M486 40 L373 40 L373 308" fill="none" stroke="#888780" stroke-width="1" stroke-dasharray="4 3" marker-end="url(#arr)"/>
  <text x="390" y="34" font-family="sans-serif" font-size="11" fill="#5F5E5A">query</text>

  <path d="M373 252 L392 228" fill="none" stroke="#888780" stroke-width="1" stroke-dasharray="4 3" marker-end="url(#arr)"/>
  <text x="304" y="252" font-family="sans-serif" font-size="11" fill="#5F5E5A">query</text>
</svg>
